<?xml version="1.0" encoding="UTF-8" standalone="no"?>
<!DOCTYPE svg PUBLIC "-//W3C//DTD SVG 1.1//EN" "http://www.w3.org/Graphics/SVG/1.1/DTD/svg11.dtd">
<svg version="1.1" xmlns="http://www.w3.org/2000/svg" xmlns:xlink="http://www.w3.org/1999/xlink" preserveAspectRatio="xMidYMid meet" viewBox="0 0 2000 4000" width="2000" height="4000"><defs><path d="M2216.91 -180.3C2190.04 -137.29 2238.24 -424.52 1887.71 -149.44C1747.5 -39.41 1699.28 -128.79 1232.3 361.66C830.69 783.45 836.46 967.66 591.14 1297.03C345.82 1626.4 221.91 1894.11 151.97 2401.46C82.03 2908.81 -91.92 3541.74 -279.31 3879C-466.7 4216.27 -325.37 3867.92 -597.59 3750.52C-605.8 3746.98 -623.14 3565.26 -631.48 3560.8C-1187.59 3263.28 -1071.41 1483.5 -536.68 484.02C-1.95 -515.46 883.67 -1085.36 1439.77 -787.84C1831.82 -578.09 2537.94 -694.23 2216.91 -180.3Z" id="caFGdYYfg"></path><linearGradient id="gradientcUqifwbL3" gradientUnits="userSpaceOnUse" x1="1436.92" y1="-961.46" x2="-1041.24" y2="3670.53"><stop style="stop-color: #56fcf5;stop-opacity: 1" offset="0%"></stop><stop style="stop-color: #010000;stop-opacity: 1" offset="100%"></stop></linearGradient></defs><g><g><g><use xlink:href="#caFGdYYfg" opacity="1" fill="url(#gradientcUqifwbL3)"></use></g></g></g></svg>