<?xml version="1.0" encoding="UTF-8" standalone="no"?>
<!DOCTYPE svg PUBLIC "-//W3C//DTD SVG 1.1//EN" "http://www.w3.org/Graphics/SVG/1.1/DTD/svg11.dtd">
<svg version="1.1" xmlns="http://www.w3.org/2000/svg" xmlns:xlink="http://www.w3.org/1999/xlink" preserveAspectRatio="xMidYMid meet" viewBox="0 0 640 100" width="640" height="100"><defs><path d="M751.14 97.32C751.14 137.69 609.8 182.51 409.47 182.51C209.15 182.51 25.21 137.69 25.21 97.32C25.21 90.73 34.76 87.15 53.84 86.57C68.19 87.26 77.16 87.69 80.74 87.86C139.76 90.68 198.92 88.87 257.65 82.45C284.68 79.5 254.87 82.76 276.23 80.42C276.23 80.42 508.43 48.13 508.43 48.13C537.16 43.27 513.18 47.33 543.27 42.24C612.9 30.46 684.36 46.93 741.81 88C748.03 92.45 751.14 95.56 751.14 97.32Z" id="apWdsxPPe"></path><linearGradient id="gradientb1TlJF4xAi" gradientUnits="userSpaceOnUse" x1="388.18" y1="38.2" x2="388.18" y2="182.51"><stop style="stop-color: #5bb0ff;stop-opacity: 1" offset="0%"></stop><stop style="stop-color: #010000;stop-opacity: 1" offset="100%"></stop></linearGradient><path d="M602.66 142.88C602.81 198.34 398.56 226.2 203.85 226.75C9.14 227.29 -149.06 182.71 -149.21 127.26C-149.37 71.8 8.58 26.34 203.29 25.8C252.87 25.66 310.44 39.7 376.01 67.91C406.62 81.09 438.59 90.88 471.33 97.12C558.84 113.78 602.62 129.04 602.66 142.88Z" id="e2zRPZwYSo"></path><linearGradient id="gradienta18cef01Hq" gradientUnits="userSpaceOnUse" x1="226.42" y1="25.74" x2="226.98" y2="226.68"><stop style="stop-color: #109c06;stop-opacity: 1" offset="0%"></stop><stop style="stop-color: #010000;stop-opacity: 1" offset="100%"></stop></linearGradient></defs><g><g><g><use xlink:href="#apWdsxPPe" opacity="0.68" fill="url(#gradientb1TlJF4xAi)"></use></g><g><use xlink:href="#e2zRPZwYSo" opacity="1" fill="url(#gradienta18cef01Hq)"></use></g></g></g></svg>